<?xml version="1.0" encoding="utf-8" standalone="no"?>
<!DOCTYPE svg PUBLIC "-//W3C//DTD SVG 1.1//EN"
  "http://www.w3.org/Graphics/SVG/1.1/DTD/svg11.dtd">
<svg xmlns:xlink="http://www.w3.org/1999/xlink" width="715.350375pt" height="623.9835pt" viewBox="0 0 715.350375 623.9835" xmlns="http://www.w3.org/2000/svg" version="1.1">
 <metadata>
  <rdf:RDF xmlns:dc="http://purl.org/dc/elements/1.1/" xmlns:cc="http://creativecommons.org/ns#" xmlns:rdf="http://www.w3.org/1999/02/22-rdf-syntax-ns#">
   <cc:Work>
    <dc:type rdf:resource="http://purl.org/dc/dcmitype/StillImage"/>
    <dc:date>2024-05-17T04:38:39.278177</dc:date>
    <dc:format>image/svg+xml</dc:format>
    <dc:creator>
     <cc:Agent>
      <dc:title>Matplotlib v3.8.1, https://matplotlib.org/</dc:title>
     </cc:Agent>
    </dc:creator>
   </cc:Work>
  </rdf:RDF>
 </metadata>
 <defs>
  <style type="text/css">*{stroke-linejoin: round; stroke-linecap: butt}</style>
 </defs>
 <g id="figure_1">
  <g id="patch_1">
   <path d="M 0 623.9835 
L 715.350375 623.9835 
L 715.350375 0 
L 0 0 
z
" style="fill: #ffffff"/>
  </g>
  <g id="axes_1">
   <g id="patch_2">
    <path d="M 86.362813 548.42 
L 379.495812 548.42 
L 379.495812 43.704 
L 86.362813 43.704 
z
" style="fill: #ffffff"/>
   </g>
   <g id="patch_3">
    <path d="M 232.929312 1137.255333 
L 232.929312 1137.255333 
L 232.929312 1137.255333 
L 232.929312 1137.255333 
z
" clip-path="url(#p547b54f0b2)" style="fill: #b4beaa; stroke: #6c6c6c; stroke-width: 2; stroke-linejoin: miter"/>
   </g>
   <g id="patch_4">
    <path d="M 232.929312 1137.255333 
L 232.929312 1137.255333 
L 232.929312 1137.255333 
L 232.929312 1137.255333 
z
" clip-path="url(#p547b54f0b2)" style="fill: #edd3ab; stroke: #6c6c6c; stroke-width: 2; stroke-linejoin: miter"/>
   </g>
   <g id="patch_5">
    <path d="M 232.929312 1137.255333 
L 232.929312 1137.255333 
L 232.929312 1137.255333 
L 232.929312 1137.255333 
z
" clip-path="url(#p547b54f0b2)" style="fill: #c0bfbe; stroke: #6c6c6c; stroke-width: 2; stroke-linejoin: miter"/>
   </g>
   <g id="matplotlib.axis_1">
    <g id="xtick_1">
     <g id="line2d_1">
      <defs>
       <path id="m04903bbff1" d="M 0 0 
L 0 5 
" style="stroke: #000000; stroke-width: 2"/>
      </defs>
      <g>
       <use xlink:href="#m04903bbff1" x="232.929312" y="548.42" style="stroke: #000000; stroke-width: 2"/>
      </g>
     </g>
    </g>
    <g id="text_1">
     <!-- A$_2$BX$_4$ -->
     <g transform="translate(184.815312 580.111312) scale(0.324 -0.324)">
      <defs>
       <path id="ArialMT-41" d="M -9 0 
L 1750 4581 
L 2403 4581 
L 4278 0 
L 3588 0 
L 3053 1388 
L 1138 1388 
L 634 0 
L -9 0 
z
M 1313 1881 
L 2866 1881 
L 2388 3150 
Q 2169 3728 2063 4100 
Q 1975 3659 1816 3225 
L 1313 1881 
z
" transform="scale(0.015625)"/>
       <path id="DejaVuSans-32" d="M 1228 531 
L 3431 531 
L 3431 0 
L 469 0 
L 469 531 
Q 828 903 1448 1529 
Q 2069 2156 2228 2338 
Q 2531 2678 2651 2914 
Q 2772 3150 2772 3378 
Q 2772 3750 2511 3984 
Q 2250 4219 1831 4219 
Q 1534 4219 1204 4116 
Q 875 4013 500 3803 
L 500 4441 
Q 881 4594 1212 4672 
Q 1544 4750 1819 4750 
Q 2544 4750 2975 4387 
Q 3406 4025 3406 3419 
Q 3406 3131 3298 2873 
Q 3191 2616 2906 2266 
Q 2828 2175 2409 1742 
Q 1991 1309 1228 531 
z
" transform="scale(0.015625)"/>
       <path id="ArialMT-42" d="M 469 0 
L 469 4581 
L 2188 4581 
Q 2713 4581 3030 4442 
Q 3347 4303 3526 4014 
Q 3706 3725 3706 3409 
Q 3706 3116 3547 2856 
Q 3388 2597 3066 2438 
Q 3481 2316 3704 2022 
Q 3928 1728 3928 1328 
Q 3928 1006 3792 729 
Q 3656 453 3456 303 
Q 3256 153 2954 76 
Q 2653 0 2216 0 
L 469 0 
z
M 1075 2656 
L 2066 2656 
Q 2469 2656 2644 2709 
Q 2875 2778 2992 2937 
Q 3109 3097 3109 3338 
Q 3109 3566 3000 3739 
Q 2891 3913 2687 3977 
Q 2484 4041 1991 4041 
L 1075 4041 
L 1075 2656 
z
M 1075 541 
L 2216 541 
Q 2509 541 2628 563 
Q 2838 600 2978 687 
Q 3119 775 3209 942 
Q 3300 1109 3300 1328 
Q 3300 1584 3169 1773 
Q 3038 1963 2805 2039 
Q 2572 2116 2134 2116 
L 1075 2116 
L 1075 541 
z
" transform="scale(0.015625)"/>
       <path id="ArialMT-58" d="M 28 0 
L 1800 2388 
L 238 4581 
L 959 4581 
L 1791 3406 
Q 2050 3041 2159 2844 
Q 2313 3094 2522 3366 
L 3444 4581 
L 4103 4581 
L 2494 2422 
L 4228 0 
L 3478 0 
L 2325 1634 
Q 2228 1775 2125 1941 
Q 1972 1691 1906 1597 
L 756 0 
L 28 0 
z
" transform="scale(0.015625)"/>
       <path id="DejaVuSans-34" d="M 2419 4116 
L 825 1625 
L 2419 1625 
L 2419 4116 
z
M 2253 4666 
L 3047 4666 
L 3047 1625 
L 3713 1625 
L 3713 1100 
L 3047 1100 
L 3047 0 
L 2419 0 
L 2419 1100 
L 313 1100 
L 313 1709 
L 2253 4666 
z
" transform="scale(0.015625)"/>
      </defs>
      <use xlink:href="#ArialMT-41" transform="translate(0 0.421875)"/>
      <use xlink:href="#DejaVuSans-32" transform="translate(67.65625 -15.984375) scale(0.7)"/>
      <use xlink:href="#ArialMT-42" transform="translate(114.926758 0.421875)"/>
      <use xlink:href="#ArialMT-58" transform="translate(181.625977 0.421875)"/>
      <use xlink:href="#DejaVuSans-34" transform="translate(249.282227 -15.984375) scale(0.7)"/>
     </g>
    </g>
   </g>
   <g id="matplotlib.axis_2">
    <g id="ytick_1">
     <g id="line2d_2">
      <defs>
       <path id="m8541256e60" d="M 0 0 
L -5 0 
" style="stroke: #ffffff; stroke-width: 2"/>
      </defs>
      <g>
       <use xlink:href="#m8541256e60" x="86.362813" y="548.42" style="fill: #ffffff; stroke: #ffffff; stroke-width: 2"/>
      </g>
     </g>
     <g id="text_2">
      <!-- 1.4 -->
      <g transform="translate(37.830813 558.72725) scale(0.288 -0.288)">
       <defs>
        <path id="ArialMT-31" d="M 2384 0 
L 1822 0 
L 1822 3584 
Q 1619 3391 1289 3197 
Q 959 3003 697 2906 
L 697 3450 
Q 1169 3672 1522 3987 
Q 1875 4303 2022 4600 
L 2384 4600 
L 2384 0 
z
" transform="scale(0.015625)"/>
        <path id="ArialMT-2e" d="M 581 0 
L 581 641 
L 1222 641 
L 1222 0 
L 581 0 
z
" transform="scale(0.015625)"/>
        <path id="ArialMT-34" d="M 2069 0 
L 2069 1097 
L 81 1097 
L 81 1613 
L 2172 4581 
L 2631 4581 
L 2631 1613 
L 3250 1613 
L 3250 1097 
L 2631 1097 
L 2631 0 
L 2069 0 
z
M 2069 1613 
L 2069 3678 
L 634 1613 
L 2069 1613 
z
" transform="scale(0.015625)"/>
       </defs>
       <use xlink:href="#ArialMT-31"/>
       <use xlink:href="#ArialMT-2e" x="55.615234"/>
       <use xlink:href="#ArialMT-34" x="83.398438"/>
      </g>
     </g>
    </g>
    <g id="ytick_2">
     <g id="line2d_3">
      <g>
       <use xlink:href="#m8541256e60" x="86.362813" y="464.300667" style="fill: #ffffff; stroke: #ffffff; stroke-width: 2"/>
      </g>
     </g>
     <g id="text_3">
      <!-- 1.6 -->
      <g transform="translate(37.830813 474.607917) scale(0.288 -0.288)">
       <defs>
        <path id="ArialMT-36" d="M 3184 3459 
L 2625 3416 
Q 2550 3747 2413 3897 
Q 2184 4138 1850 4138 
Q 1581 4138 1378 3988 
Q 1113 3794 959 3422 
Q 806 3050 800 2363 
Q 1003 2672 1297 2822 
Q 1591 2972 1913 2972 
Q 2475 2972 2870 2558 
Q 3266 2144 3266 1488 
Q 3266 1056 3080 686 
Q 2894 316 2569 119 
Q 2244 -78 1831 -78 
Q 1128 -78 684 439 
Q 241 956 241 2144 
Q 241 3472 731 4075 
Q 1159 4600 1884 4600 
Q 2425 4600 2770 4297 
Q 3116 3994 3184 3459 
z
M 888 1484 
Q 888 1194 1011 928 
Q 1134 663 1356 523 
Q 1578 384 1822 384 
Q 2178 384 2434 671 
Q 2691 959 2691 1453 
Q 2691 1928 2437 2201 
Q 2184 2475 1800 2475 
Q 1419 2475 1153 2201 
Q 888 1928 888 1484 
z
" transform="scale(0.015625)"/>
       </defs>
       <use xlink:href="#ArialMT-31"/>
       <use xlink:href="#ArialMT-2e" x="55.615234"/>
       <use xlink:href="#ArialMT-36" x="83.398438"/>
      </g>
     </g>
    </g>
    <g id="ytick_3">
     <g id="line2d_4">
      <g>
       <use xlink:href="#m8541256e60" x="86.362813" y="380.181333" style="fill: #ffffff; stroke: #ffffff; stroke-width: 2"/>
      </g>
     </g>
     <g id="text_4">
      <!-- 1.8 -->
      <g transform="translate(37.830813 390.488583) scale(0.288 -0.288)">
       <defs>
        <path id="ArialMT-38" d="M 1131 2484 
Q 781 2613 612 2850 
Q 444 3088 444 3419 
Q 444 3919 803 4259 
Q 1163 4600 1759 4600 
Q 2359 4600 2725 4251 
Q 3091 3903 3091 3403 
Q 3091 3084 2923 2848 
Q 2756 2613 2416 2484 
Q 2838 2347 3058 2040 
Q 3278 1734 3278 1309 
Q 3278 722 2862 322 
Q 2447 -78 1769 -78 
Q 1091 -78 675 323 
Q 259 725 259 1325 
Q 259 1772 486 2073 
Q 713 2375 1131 2484 
z
M 1019 3438 
Q 1019 3113 1228 2906 
Q 1438 2700 1772 2700 
Q 2097 2700 2305 2904 
Q 2513 3109 2513 3406 
Q 2513 3716 2298 3927 
Q 2084 4138 1766 4138 
Q 1444 4138 1231 3931 
Q 1019 3725 1019 3438 
z
M 838 1322 
Q 838 1081 952 856 
Q 1066 631 1291 507 
Q 1516 384 1775 384 
Q 2178 384 2440 643 
Q 2703 903 2703 1303 
Q 2703 1709 2433 1975 
Q 2163 2241 1756 2241 
Q 1359 2241 1098 1978 
Q 838 1716 838 1322 
z
" transform="scale(0.015625)"/>
       </defs>
       <use xlink:href="#ArialMT-31"/>
       <use xlink:href="#ArialMT-2e" x="55.615234"/>
       <use xlink:href="#ArialMT-38" x="83.398438"/>
      </g>
     </g>
    </g>
    <g id="ytick_4">
     <g id="line2d_5">
      <g>
       <use xlink:href="#m8541256e60" x="86.362813" y="296.062" style="fill: #ffffff; stroke: #ffffff; stroke-width: 2"/>
      </g>
     </g>
     <g id="text_5">
      <!-- 2.0 -->
      <g transform="translate(37.830813 306.36925) scale(0.288 -0.288)">
       <defs>
        <path id="ArialMT-32" d="M 3222 541 
L 3222 0 
L 194 0 
Q 188 203 259 391 
Q 375 700 629 1000 
Q 884 1300 1366 1694 
Q 2113 2306 2375 2664 
Q 2638 3022 2638 3341 
Q 2638 3675 2398 3904 
Q 2159 4134 1775 4134 
Q 1369 4134 1125 3890 
Q 881 3647 878 3216 
L 300 3275 
Q 359 3922 746 4261 
Q 1134 4600 1788 4600 
Q 2447 4600 2831 4234 
Q 3216 3869 3216 3328 
Q 3216 3053 3103 2787 
Q 2991 2522 2730 2228 
Q 2469 1934 1863 1422 
Q 1356 997 1212 845 
Q 1069 694 975 541 
L 3222 541 
z
" transform="scale(0.015625)"/>
        <path id="ArialMT-30" d="M 266 2259 
Q 266 3072 433 3567 
Q 600 4063 929 4331 
Q 1259 4600 1759 4600 
Q 2128 4600 2406 4451 
Q 2684 4303 2865 4023 
Q 3047 3744 3150 3342 
Q 3253 2941 3253 2259 
Q 3253 1453 3087 958 
Q 2922 463 2592 192 
Q 2263 -78 1759 -78 
Q 1097 -78 719 397 
Q 266 969 266 2259 
z
M 844 2259 
Q 844 1131 1108 757 
Q 1372 384 1759 384 
Q 2147 384 2411 759 
Q 2675 1134 2675 2259 
Q 2675 3391 2411 3762 
Q 2147 4134 1753 4134 
Q 1366 4134 1134 3806 
Q 844 3388 844 2259 
z
" transform="scale(0.015625)"/>
       </defs>
       <use xlink:href="#ArialMT-32"/>
       <use xlink:href="#ArialMT-2e" x="55.615234"/>
       <use xlink:href="#ArialMT-30" x="83.398438"/>
      </g>
     </g>
    </g>
    <g id="ytick_5">
     <g id="line2d_6">
      <g>
       <use xlink:href="#m8541256e60" x="86.362813" y="211.942667" style="fill: #ffffff; stroke: #ffffff; stroke-width: 2"/>
      </g>
     </g>
     <g id="text_6">
      <!-- 2.2 -->
      <g transform="translate(37.830813 222.249917) scale(0.288 -0.288)">
       <use xlink:href="#ArialMT-32"/>
       <use xlink:href="#ArialMT-2e" x="55.615234"/>
       <use xlink:href="#ArialMT-32" x="83.398438"/>
      </g>
     </g>
    </g>
    <g id="ytick_6">
     <g id="line2d_7">
      <g>
       <use xlink:href="#m8541256e60" x="86.362813" y="127.823333" style="fill: #ffffff; stroke: #ffffff; stroke-width: 2"/>
      </g>
     </g>
     <g id="text_7">
      <!-- 2.4 -->
      <g transform="translate(37.830813 138.130583) scale(0.288 -0.288)">
       <use xlink:href="#ArialMT-32"/>
       <use xlink:href="#ArialMT-2e" x="55.615234"/>
       <use xlink:href="#ArialMT-34" x="83.398438"/>
      </g>
     </g>
    </g>
    <g id="ytick_7">
     <g id="line2d_8">
      <g>
       <use xlink:href="#m8541256e60" x="86.362813" y="43.704" style="fill: #ffffff; stroke: #ffffff; stroke-width: 2"/>
      </g>
     </g>
     <g id="text_8">
      <!-- 2.6 -->
      <g transform="translate(37.830813 54.01125) scale(0.288 -0.288)">
       <use xlink:href="#ArialMT-32"/>
       <use xlink:href="#ArialMT-2e" x="55.615234"/>
       <use xlink:href="#ArialMT-36" x="83.398438"/>
      </g>
     </g>
    </g>
    <g id="text_9">
     <!-- $\mathit{t}_{\mathit{RP}}$ -->
     <g style="fill: #ffffff" transform="translate(30.391313 317.608) rotate(-90) scale(0.324 -0.324)">
      <defs>
       <path id="DejaVuSans-Oblique-74" d="M 2706 3500 
L 2619 3053 
L 1472 3053 
L 1100 1153 
Q 1081 1047 1072 975 
Q 1063 903 1063 863 
Q 1063 663 1183 572 
Q 1303 481 1569 481 
L 2150 481 
L 2053 0 
L 1503 0 
Q 991 0 739 200 
Q 488 400 488 806 
Q 488 878 497 964 
Q 506 1050 525 1153 
L 897 3053 
L 409 3053 
L 500 3500 
L 978 3500 
L 1172 4494 
L 1747 4494 
L 1556 3500 
L 2706 3500 
z
" transform="scale(0.015625)"/>
       <path id="DejaVuSans-Oblique-52" d="M 1613 4147 
L 1294 2491 
L 2106 2491 
Q 2584 2491 2879 2755 
Q 3175 3019 3175 3444 
Q 3175 3784 2976 3965 
Q 2778 4147 2406 4147 
L 1613 4147 
z
M 2772 2241 
Q 2972 2194 3105 2009 
Q 3238 1825 3413 1275 
L 3809 0 
L 3144 0 
L 2778 1197 
Q 2638 1659 2453 1815 
Q 2269 1972 1888 1972 
L 1191 1972 
L 806 0 
L 172 0 
L 1081 4666 
L 2503 4666 
Q 3150 4666 3495 4373 
Q 3841 4081 3841 3531 
Q 3841 3044 3547 2687 
Q 3253 2331 2772 2241 
z
" transform="scale(0.015625)"/>
       <path id="DejaVuSans-Oblique-50" d="M 1081 4666 
L 2541 4666 
Q 3178 4666 3512 4369 
Q 3847 4072 3847 3500 
Q 3847 2731 3353 2303 
Q 2859 1875 1966 1875 
L 1172 1875 
L 806 0 
L 172 0 
L 1081 4666 
z
M 1613 4147 
L 1275 2394 
L 2069 2394 
Q 2606 2394 2893 2669 
Q 3181 2944 3181 3456 
Q 3181 3784 2986 3965 
Q 2791 4147 2438 4147 
L 1613 4147 
z
" transform="scale(0.015625)"/>
      </defs>
      <use xlink:href="#DejaVuSans-Oblique-74" transform="translate(0 0.78125)"/>
      <use xlink:href="#DejaVuSans-Oblique-52" transform="translate(39.208984 -15.625) scale(0.7)"/>
      <use xlink:href="#DejaVuSans-Oblique-50" transform="translate(87.84668 -15.625) scale(0.7)"/>
     </g>
    </g>
   </g>
   <g id="patch_6">
    <path d="M 123.004437 452.24189 
L 196.287687 452.24189 
L 196.287687 431.082581 
L 123.004437 431.082581 
L 123.004437 452.24189 
z
" clip-path="url(#p547b54f0b2)" style="fill: #b4beaa; stroke: #6c6c6c; stroke-linejoin: miter"/>
   </g>
   <g id="line2d_9">
    <path d="M 159.646062 452.24189 
L 159.646062 462.466514 
" clip-path="url(#p547b54f0b2)" style="fill: none; stroke: #6c6c6c"/>
   </g>
   <g id="line2d_10">
    <path d="M 159.646062 431.082581 
L 159.646062 369.82305 
" clip-path="url(#p547b54f0b2)" style="fill: none; stroke: #6c6c6c"/>
   </g>
   <g id="line2d_11">
    <path d="M 141.32525 462.466514 
L 177.966875 462.466514 
" clip-path="url(#p547b54f0b2)" style="fill: none; stroke: #6c6c6c; stroke-linecap: square"/>
   </g>
   <g id="line2d_12">
    <path d="M 141.32525 369.82305 
L 177.966875 369.82305 
" clip-path="url(#p547b54f0b2)" style="fill: none; stroke: #6c6c6c; stroke-linecap: square"/>
   </g>
   <g id="line2d_13"/>
   <g id="patch_7">
    <path d="M 196.287687 488.824264 
L 269.570937 488.824264 
L 269.570937 422.17559 
L 196.287687 422.17559 
L 196.287687 488.824264 
z
" clip-path="url(#p547b54f0b2)" style="fill: #edd3ab; stroke: #6c6c6c; stroke-linejoin: miter"/>
   </g>
   <g id="line2d_14">
    <path d="M 232.929312 488.824264 
L 232.929312 519.794173 
" clip-path="url(#p547b54f0b2)" style="fill: none; stroke: #6c6c6c"/>
   </g>
   <g id="line2d_15">
    <path d="M 232.929312 422.17559 
L 232.929312 374.491773 
" clip-path="url(#p547b54f0b2)" style="fill: none; stroke: #6c6c6c"/>
   </g>
   <g id="line2d_16">
    <path d="M 214.6085 519.794173 
L 251.250125 519.794173 
" clip-path="url(#p547b54f0b2)" style="fill: none; stroke: #6c6c6c; stroke-linecap: square"/>
   </g>
   <g id="line2d_17">
    <path d="M 214.6085 374.491773 
L 251.250125 374.491773 
" clip-path="url(#p547b54f0b2)" style="fill: none; stroke: #6c6c6c; stroke-linecap: square"/>
   </g>
   <g id="line2d_18"/>
   <g id="patch_8">
    <path d="M 269.570937 384.507253 
L 342.854187 384.507253 
L 342.854187 326.624723 
L 269.570937 326.624723 
L 269.570937 384.507253 
z
" clip-path="url(#p547b54f0b2)" style="fill: #c0bfbe; stroke: #6c6c6c; stroke-linejoin: miter"/>
   </g>
   <g id="line2d_19">
    <path d="M 306.212562 384.507253 
L 306.212562 438.865121 
" clip-path="url(#p547b54f0b2)" style="fill: none; stroke: #6c6c6c"/>
   </g>
   <g id="line2d_20">
    <path d="M 306.212562 326.624723 
L 306.212562 139.933762 
" clip-path="url(#p547b54f0b2)" style="fill: none; stroke: #6c6c6c"/>
   </g>
   <g id="line2d_21">
    <path d="M 287.89175 438.865121 
L 324.533375 438.865121 
" clip-path="url(#p547b54f0b2)" style="fill: none; stroke: #6c6c6c; stroke-linecap: square"/>
   </g>
   <g id="line2d_22">
    <path d="M 287.89175 139.933762 
L 324.533375 139.933762 
" clip-path="url(#p547b54f0b2)" style="fill: none; stroke: #6c6c6c; stroke-linecap: square"/>
   </g>
   <g id="line2d_23"/>
   <g id="LineCollection_1">
    <path d="M 86.362812 413.829067 
L 672.628812 413.829067 
" clip-path="url(#p547b54f0b2)" style="fill: none; stroke-dasharray: 11.1,4.8; stroke-dashoffset: 0; stroke: #f8d5a0; stroke-width: 3"/>
   </g>
   <g id="LineCollection_2">
    <path d="M 86.362812 413.829067 
L 672.628812 413.829067 
" clip-path="url(#p547b54f0b2)" style="fill: none; stroke-dasharray: 11.1,4.8; stroke-dashoffset: 0; stroke: #f8d5a0; stroke-width: 3"/>
   </g>
   <g id="LineCollection_3">
    <path d="M 86.362812 413.829067 
L 672.628812 413.829067 
" clip-path="url(#p547b54f0b2)" style="fill: none; stroke-dasharray: 11.1,4.8; stroke-dashoffset: 0; stroke: #f8d5a0; stroke-width: 3"/>
   </g>
   <g id="line2d_24">
    <path d="M 123.004437 443.663229 
L 196.287687 443.663229 
" clip-path="url(#p547b54f0b2)" style="fill: none; stroke: #6c6c6c"/>
   </g>
   <g id="line2d_25">
    <path d="M 196.287687 477.948531 
L 269.570937 477.948531 
" clip-path="url(#p547b54f0b2)" style="fill: none; stroke: #6c6c6c"/>
   </g>
   <g id="line2d_26">
    <path d="M 269.570937 366.061146 
L 342.854187 366.061146 
" clip-path="url(#p547b54f0b2)" style="fill: none; stroke: #6c6c6c"/>
   </g>
   <g id="patch_9">
    <path d="M 86.362813 548.42 
L 86.362813 43.704 
" style="fill: none; stroke: #000000; stroke-width: 2; stroke-linejoin: miter; stroke-linecap: square"/>
   </g>
   <g id="patch_10">
    <path d="M 379.495812 548.42 
L 379.495812 43.704 
" style="fill: none; stroke: #000000; stroke-width: 2; stroke-linejoin: miter; stroke-linecap: square"/>
   </g>
   <g id="patch_11">
    <path d="M 86.362812 548.42 
L 379.495812 548.42 
" style="fill: none; stroke: #000000; stroke-width: 2; stroke-linejoin: miter; stroke-linecap: square"/>
   </g>
   <g id="patch_12">
    <path d="M 86.362812 43.704 
L 379.495812 43.704 
" style="fill: none; stroke: #000000; stroke-width: 2; stroke-linejoin: miter; stroke-linecap: square"/>
   </g>
   <g id="text_10">
    <!-- 1.72 -->
    <g style="fill: #f8d5a0" transform="translate(88.619525 406.717583) scale(0.252 -0.252)">
     <defs>
      <path id="ArialMT-37" d="M 303 3981 
L 303 4522 
L 3269 4522 
L 3269 4084 
Q 2831 3619 2401 2847 
Q 1972 2075 1738 1259 
Q 1569 684 1522 0 
L 944 0 
Q 953 541 1156 1306 
Q 1359 2072 1739 2783 
Q 2119 3494 2547 3981 
L 303 3981 
z
" transform="scale(0.015625)"/>
     </defs>
     <use xlink:href="#ArialMT-31"/>
     <use xlink:href="#ArialMT-2e" x="55.615234"/>
     <use xlink:href="#ArialMT-37" x="83.398438"/>
     <use xlink:href="#ArialMT-32" x="139.013672"/>
    </g>
   </g>
   <g id="text_11">
    <!-- 1.72 -->
    <g style="fill: #f8d5a0" transform="translate(88.619525 406.717583) scale(0.252 -0.252)">
     <use xlink:href="#ArialMT-31"/>
     <use xlink:href="#ArialMT-2e" x="55.615234"/>
     <use xlink:href="#ArialMT-37" x="83.398438"/>
     <use xlink:href="#ArialMT-32" x="139.013672"/>
    </g>
   </g>
   <g id="text_12">
    <!-- 1.72 -->
    <g style="fill: #f8d5a0" transform="translate(88.619525 406.717583) scale(0.252 -0.252)">
     <use xlink:href="#ArialMT-31"/>
     <use xlink:href="#ArialMT-2e" x="55.615234"/>
     <use xlink:href="#ArialMT-37" x="83.398438"/>
     <use xlink:href="#ArialMT-32" x="139.013672"/>
    </g>
   </g>
  </g>
  <g id="axes_2">
   <g id="patch_13">
    <path d="M 395.145813 548.42 
L 492.856813 548.42 
L 492.856813 43.704 
L 395.145813 43.704 
z
" style="fill: #ffffff"/>
   </g>
   <g id="patch_14">
    <path d="M 444.001313 1137.255333 
L 444.001313 1137.255333 
L 444.001313 1137.255333 
L 444.001313 1137.255333 
z
" clip-path="url(#p40be0b2fe7)" style="fill: #edd3ab; stroke: #7a7a7a; stroke-linejoin: miter"/>
   </g>
   <g id="matplotlib.axis_3">
    <g id="xtick_2">
     <g id="line2d_27">
      <g>
       <use xlink:href="#m04903bbff1" x="444.001313" y="548.42" style="stroke: #000000; stroke-width: 2"/>
      </g>
     </g>
    </g>
    <g id="text_13">
     <!-- A$_3$B$_2$X$_7$ -->
     <g transform="translate(388.111313 580.111312) scale(0.324 -0.324)">
      <defs>
       <path id="DejaVuSans-33" d="M 2597 2516 
Q 3050 2419 3304 2112 
Q 3559 1806 3559 1356 
Q 3559 666 3084 287 
Q 2609 -91 1734 -91 
Q 1441 -91 1130 -33 
Q 819 25 488 141 
L 488 750 
Q 750 597 1062 519 
Q 1375 441 1716 441 
Q 2309 441 2620 675 
Q 2931 909 2931 1356 
Q 2931 1769 2642 2001 
Q 2353 2234 1838 2234 
L 1294 2234 
L 1294 2753 
L 1863 2753 
Q 2328 2753 2575 2939 
Q 2822 3125 2822 3475 
Q 2822 3834 2567 4026 
Q 2313 4219 1838 4219 
Q 1578 4219 1281 4162 
Q 984 4106 628 3988 
L 628 4550 
Q 988 4650 1302 4700 
Q 1616 4750 1894 4750 
Q 2613 4750 3031 4423 
Q 3450 4097 3450 3541 
Q 3450 3153 3228 2886 
Q 3006 2619 2597 2516 
z
" transform="scale(0.015625)"/>
       <path id="DejaVuSans-37" d="M 525 4666 
L 3525 4666 
L 3525 4397 
L 1831 0 
L 1172 0 
L 2766 4134 
L 525 4134 
L 525 4666 
z
" transform="scale(0.015625)"/>
      </defs>
      <use xlink:href="#ArialMT-41" transform="translate(0 0.421875)"/>
      <use xlink:href="#DejaVuSans-33" transform="translate(67.65625 -15.984375) scale(0.7)"/>
      <use xlink:href="#ArialMT-42" transform="translate(114.926758 0.421875)"/>
      <use xlink:href="#DejaVuSans-32" transform="translate(182.583008 -15.984375) scale(0.7)"/>
      <use xlink:href="#ArialMT-58" transform="translate(229.853516 0.421875)"/>
      <use xlink:href="#DejaVuSans-37" transform="translate(297.509766 -15.984375) scale(0.7)"/>
     </g>
    </g>
   </g>
   <g id="matplotlib.axis_4">
    <g id="ytick_8">
     <g id="line2d_28"/>
     <g id="text_14">
      <!-- 1.4 -->
      <g transform="translate(390.255813 548.777891) scale(0.01 -0.01)">
       <use xlink:href="#ArialMT-31"/>
       <use xlink:href="#ArialMT-2e" x="55.615234"/>
       <use xlink:href="#ArialMT-34" x="83.398438"/>
      </g>
     </g>
    </g>
    <g id="ytick_9">
     <g id="line2d_29"/>
     <g id="text_15">
      <!-- 1.6 -->
      <g transform="translate(390.255813 464.658557) scale(0.01 -0.01)">
       <use xlink:href="#ArialMT-31"/>
       <use xlink:href="#ArialMT-2e" x="55.615234"/>
       <use xlink:href="#ArialMT-36" x="83.398438"/>
      </g>
     </g>
    </g>
    <g id="ytick_10">
     <g id="line2d_30"/>
     <g id="text_16">
      <!-- 1.8 -->
      <g transform="translate(390.255813 380.539224) scale(0.01 -0.01)">
       <use xlink:href="#ArialMT-31"/>
       <use xlink:href="#ArialMT-2e" x="55.615234"/>
       <use xlink:href="#ArialMT-38" x="83.398438"/>
      </g>
     </g>
    </g>
    <g id="ytick_11">
     <g id="line2d_31"/>
     <g id="text_17">
      <!-- 2.0 -->
      <g transform="translate(390.255813 296.419891) scale(0.01 -0.01)">
       <use xlink:href="#ArialMT-32"/>
       <use xlink:href="#ArialMT-2e" x="55.615234"/>
       <use xlink:href="#ArialMT-30" x="83.398438"/>
      </g>
     </g>
    </g>
    <g id="ytick_12">
     <g id="line2d_32"/>
     <g id="text_18">
      <!-- 2.2 -->
      <g transform="translate(390.255813 212.300557) scale(0.01 -0.01)">
       <use xlink:href="#ArialMT-32"/>
       <use xlink:href="#ArialMT-2e" x="55.615234"/>
       <use xlink:href="#ArialMT-32" x="83.398438"/>
      </g>
     </g>
    </g>
    <g id="ytick_13">
     <g id="line2d_33"/>
     <g id="text_19">
      <!-- 2.4 -->
      <g transform="translate(390.255813 128.181224) scale(0.01 -0.01)">
       <use xlink:href="#ArialMT-32"/>
       <use xlink:href="#ArialMT-2e" x="55.615234"/>
       <use xlink:href="#ArialMT-34" x="83.398438"/>
      </g>
     </g>
    </g>
    <g id="ytick_14">
     <g id="line2d_34"/>
     <g id="text_20">
      <!-- 2.6 -->
      <g transform="translate(390.255813 44.061891) scale(0.01 -0.01)">
       <use xlink:href="#ArialMT-32"/>
       <use xlink:href="#ArialMT-2e" x="55.615234"/>
       <use xlink:href="#ArialMT-36" x="83.398438"/>
      </g>
     </g>
    </g>
   </g>
   <g id="LineCollection_4">
    <path d="M 395.145813 413.829067 
L 590.567813 413.829067 
" clip-path="url(#p40be0b2fe7)" style="fill: none; stroke-dasharray: 11.1,4.8; stroke-dashoffset: 0; stroke: #f8d5a0; stroke-width: 3"/>
   </g>
   <g id="patch_15">
    <path d="M 407.359688 480.099929 
L 480.642938 480.099929 
L 480.642938 403.080089 
L 407.359688 403.080089 
L 407.359688 480.099929 
z
" clip-path="url(#p40be0b2fe7)" style="fill: #edd3ab; stroke: #7a7a7a; stroke-linejoin: miter"/>
   </g>
   <g id="line2d_35">
    <path d="M 444.001313 480.099929 
L 444.001313 492.591602 
" clip-path="url(#p40be0b2fe7)" style="fill: none; stroke: #7a7a7a"/>
   </g>
   <g id="line2d_36">
    <path d="M 444.001313 403.080089 
L 444.001313 383.048192 
" clip-path="url(#p40be0b2fe7)" style="fill: none; stroke: #7a7a7a"/>
   </g>
   <g id="line2d_37">
    <path d="M 425.6805 492.591602 
L 462.322125 492.591602 
" clip-path="url(#p40be0b2fe7)" style="fill: none; stroke: #7a7a7a; stroke-linecap: square"/>
   </g>
   <g id="line2d_38">
    <path d="M 425.6805 383.048192 
L 462.322125 383.048192 
" clip-path="url(#p40be0b2fe7)" style="fill: none; stroke: #7a7a7a; stroke-linecap: square"/>
   </g>
   <g id="line2d_39"/>
   <g id="LineCollection_5">
    <path d="M 395.145813 413.829067 
L 590.567813 413.829067 
" clip-path="url(#p40be0b2fe7)" style="fill: none; stroke-dasharray: 11.1,4.8; stroke-dashoffset: 0; stroke: #f8d5a0; stroke-width: 3"/>
   </g>
   <g id="LineCollection_6">
    <path d="M 395.145813 413.829067 
L 590.567813 413.829067 
" clip-path="url(#p40be0b2fe7)" style="fill: none; stroke-dasharray: 11.1,4.8; stroke-dashoffset: 0; stroke: #f8d5a0; stroke-width: 3"/>
   </g>
   <g id="line2d_40">
    <path d="M 407.359688 430.104388 
L 480.642938 430.104388 
" clip-path="url(#p40be0b2fe7)" style="fill: none; stroke: #7a7a7a"/>
   </g>
   <g id="patch_16">
    <path d="M 395.145813 548.42 
L 395.145813 43.704 
" style="fill: none; stroke: #000000; stroke-width: 2; stroke-linejoin: miter; stroke-linecap: square"/>
   </g>
   <g id="patch_17">
    <path d="M 492.856813 548.42 
L 492.856813 43.704 
" style="fill: none; stroke: #000000; stroke-width: 2; stroke-linejoin: miter; stroke-linecap: square"/>
   </g>
   <g id="patch_18">
    <path d="M 395.145813 548.42 
L 492.856813 548.42 
" style="fill: none; stroke: #000000; stroke-width: 2; stroke-linejoin: miter; stroke-linecap: square"/>
   </g>
   <g id="patch_19">
    <path d="M 395.145813 43.704 
L 492.856813 43.704 
" style="fill: none; stroke: #000000; stroke-width: 2; stroke-linejoin: miter; stroke-linecap: square"/>
   </g>
  </g>
  <g id="axes_3">
   <g id="patch_20">
    <path d="M 508.506813 548.42 
L 703.928813 548.42 
L 703.928813 43.704 
L 508.506813 43.704 
z
" style="fill: #ffffff"/>
   </g>
   <g id="patch_21">
    <path d="M 606.217813 1137.255333 
L 606.217813 1137.255333 
L 606.217813 1137.255333 
L 606.217813 1137.255333 
z
" clip-path="url(#p2b754f2866)" style="fill: #b4beaa; stroke: #6c6c6c; stroke-linejoin: miter"/>
   </g>
   <g id="patch_22">
    <path d="M 606.217813 1137.255333 
L 606.217813 1137.255333 
L 606.217813 1137.255333 
L 606.217813 1137.255333 
z
" clip-path="url(#p2b754f2866)" style="fill: #edd3ab; stroke: #6c6c6c; stroke-linejoin: miter"/>
   </g>
   <g id="matplotlib.axis_5">
    <g id="xtick_3">
     <g id="line2d_41">
      <g>
       <use xlink:href="#m04903bbff1" x="606.217813" y="548.42" style="stroke: #000000; stroke-width: 2"/>
      </g>
     </g>
    </g>
    <g id="text_21">
     <!-- A$_4$B$_3$X$_{10}$ -->
     <g transform="translate(543.037813 580.111312) scale(0.324 -0.324)">
      <defs>
       <path id="DejaVuSans-31" d="M 794 531 
L 1825 531 
L 1825 4091 
L 703 3866 
L 703 4441 
L 1819 4666 
L 2450 4666 
L 2450 531 
L 3481 531 
L 3481 0 
L 794 0 
L 794 531 
z
" transform="scale(0.015625)"/>
       <path id="DejaVuSans-30" d="M 2034 4250 
Q 1547 4250 1301 3770 
Q 1056 3291 1056 2328 
Q 1056 1369 1301 889 
Q 1547 409 2034 409 
Q 2525 409 2770 889 
Q 3016 1369 3016 2328 
Q 3016 3291 2770 3770 
Q 2525 4250 2034 4250 
z
M 2034 4750 
Q 2819 4750 3233 4129 
Q 3647 3509 3647 2328 
Q 3647 1150 3233 529 
Q 2819 -91 2034 -91 
Q 1250 -91 836 529 
Q 422 1150 422 2328 
Q 422 3509 836 4129 
Q 1250 4750 2034 4750 
z
" transform="scale(0.015625)"/>
      </defs>
      <use xlink:href="#ArialMT-41" transform="translate(0 0.421875)"/>
      <use xlink:href="#DejaVuSans-34" transform="translate(67.65625 -15.984375) scale(0.7)"/>
      <use xlink:href="#ArialMT-42" transform="translate(114.926758 0.421875)"/>
      <use xlink:href="#DejaVuSans-33" transform="translate(182.583008 -15.984375) scale(0.7)"/>
      <use xlink:href="#ArialMT-58" transform="translate(229.853516 0.421875)"/>
      <use xlink:href="#DejaVuSans-31" transform="translate(297.509766 -15.984375) scale(0.7)"/>
      <use xlink:href="#DejaVuSans-30" transform="translate(342.045898 -15.984375) scale(0.7)"/>
     </g>
    </g>
   </g>
   <g id="matplotlib.axis_6">
    <g id="ytick_15">
     <g id="line2d_42"/>
     <g id="text_22">
      <!-- 1.4 -->
      <g transform="translate(503.616813 548.777891) scale(0.01 -0.01)">
       <use xlink:href="#ArialMT-31"/>
       <use xlink:href="#ArialMT-2e" x="55.615234"/>
       <use xlink:href="#ArialMT-34" x="83.398438"/>
      </g>
     </g>
    </g>
    <g id="ytick_16">
     <g id="line2d_43"/>
     <g id="text_23">
      <!-- 1.6 -->
      <g transform="translate(503.616813 464.658557) scale(0.01 -0.01)">
       <use xlink:href="#ArialMT-31"/>
       <use xlink:href="#ArialMT-2e" x="55.615234"/>
       <use xlink:href="#ArialMT-36" x="83.398438"/>
      </g>
     </g>
    </g>
    <g id="ytick_17">
     <g id="line2d_44"/>
     <g id="text_24">
      <!-- 1.8 -->
      <g transform="translate(503.616813 380.539224) scale(0.01 -0.01)">
       <use xlink:href="#ArialMT-31"/>
       <use xlink:href="#ArialMT-2e" x="55.615234"/>
       <use xlink:href="#ArialMT-38" x="83.398438"/>
      </g>
     </g>
    </g>
    <g id="ytick_18">
     <g id="line2d_45"/>
     <g id="text_25">
      <!-- 2.0 -->
      <g transform="translate(503.616813 296.419891) scale(0.01 -0.01)">
       <use xlink:href="#ArialMT-32"/>
       <use xlink:href="#ArialMT-2e" x="55.615234"/>
       <use xlink:href="#ArialMT-30" x="83.398438"/>
      </g>
     </g>
    </g>
    <g id="ytick_19">
     <g id="line2d_46"/>
     <g id="text_26">
      <!-- 2.2 -->
      <g transform="translate(503.616813 212.300557) scale(0.01 -0.01)">
       <use xlink:href="#ArialMT-32"/>
       <use xlink:href="#ArialMT-2e" x="55.615234"/>
       <use xlink:href="#ArialMT-32" x="83.398438"/>
      </g>
     </g>
    </g>
    <g id="ytick_20">
     <g id="line2d_47"/>
     <g id="text_27">
      <!-- 2.4 -->
      <g transform="translate(503.616813 128.181224) scale(0.01 -0.01)">
       <use xlink:href="#ArialMT-32"/>
       <use xlink:href="#ArialMT-2e" x="55.615234"/>
       <use xlink:href="#ArialMT-34" x="83.398438"/>
      </g>
     </g>
    </g>
    <g id="ytick_21">
     <g id="line2d_48"/>
     <g id="text_28">
      <!-- 2.6 -->
      <g transform="translate(503.616813 44.061891) scale(0.01 -0.01)">
       <use xlink:href="#ArialMT-32"/>
       <use xlink:href="#ArialMT-2e" x="55.615234"/>
       <use xlink:href="#ArialMT-36" x="83.398438"/>
      </g>
     </g>
    </g>
   </g>
   <g id="LineCollection_7">
    <path d="M 508.506813 413.829067 
L 716.350375 413.829067 
" clip-path="url(#p2b754f2866)" style="fill: none; stroke-dasharray: 11.1,4.8; stroke-dashoffset: 0; stroke: #f8d5a0; stroke-width: 3"/>
   </g>
   <g id="LineCollection_8">
    <path d="M 508.506813 413.829067 
L 716.350375 413.829067 
" clip-path="url(#p2b754f2866)" style="fill: none; stroke-dasharray: 11.1,4.8; stroke-dashoffset: 0; stroke: #f8d5a0; stroke-width: 3"/>
   </g>
   <g id="patch_23">
    <path d="M 532.934563 513.264791 
L 606.217813 513.264791 
L 606.217813 503.52037 
L 532.934563 503.52037 
L 532.934563 513.264791 
z
" clip-path="url(#p2b754f2866)" style="fill: #b4beaa; stroke: #6c6c6c; stroke-linejoin: miter"/>
   </g>
   <g id="line2d_49">
    <path d="M 569.576188 513.264791 
L 569.576188 518.137001 
" clip-path="url(#p2b754f2866)" style="fill: none; stroke: #6c6c6c"/>
   </g>
   <g id="line2d_50">
    <path d="M 569.576188 503.52037 
L 569.576188 498.648159 
" clip-path="url(#p2b754f2866)" style="fill: none; stroke: #6c6c6c"/>
   </g>
   <g id="line2d_51">
    <path d="M 551.255375 518.137001 
L 587.897 518.137001 
" clip-path="url(#p2b754f2866)" style="fill: none; stroke: #6c6c6c; stroke-linecap: square"/>
   </g>
   <g id="line2d_52">
    <path d="M 551.255375 498.648159 
L 587.897 498.648159 
" clip-path="url(#p2b754f2866)" style="fill: none; stroke: #6c6c6c; stroke-linecap: square"/>
   </g>
   <g id="line2d_53"/>
   <g id="patch_24">
    <path d="M 606.217813 422.471861 
L 679.501062 422.471861 
L 679.501062 421.760548 
L 606.217813 421.760548 
L 606.217813 422.471861 
z
" clip-path="url(#p2b754f2866)" style="fill: #edd3ab; stroke: #6c6c6c; stroke-linejoin: miter"/>
   </g>
   <g id="line2d_54">
    <path d="M 642.859438 422.471861 
L 642.859438 422.827517 
" clip-path="url(#p2b754f2866)" style="fill: none; stroke: #6c6c6c"/>
   </g>
   <g id="line2d_55">
    <path d="M 642.859438 421.760548 
L 642.859438 421.404892 
" clip-path="url(#p2b754f2866)" style="fill: none; stroke: #6c6c6c"/>
   </g>
   <g id="line2d_56">
    <path d="M 624.538625 422.827517 
L 661.18025 422.827517 
" clip-path="url(#p2b754f2866)" style="fill: none; stroke: #6c6c6c; stroke-linecap: square"/>
   </g>
   <g id="line2d_57">
    <path d="M 624.538625 421.404892 
L 661.18025 421.404892 
" clip-path="url(#p2b754f2866)" style="fill: none; stroke: #6c6c6c; stroke-linecap: square"/>
   </g>
   <g id="line2d_58"/>
   <g id="LineCollection_9">
    <path d="M 508.506813 413.829067 
L 716.350375 413.829067 
" clip-path="url(#p2b754f2866)" style="fill: none; stroke-dasharray: 11.1,4.8; stroke-dashoffset: 0; stroke: #f8d5a0; stroke-width: 3"/>
   </g>
   <g id="line2d_59">
    <path d="M 532.934563 508.39258 
L 606.217813 508.39258 
" clip-path="url(#p2b754f2866)" style="fill: none; stroke: #6c6c6c"/>
   </g>
   <g id="line2d_60">
    <path d="M 606.217813 422.116204 
L 679.501062 422.116204 
" clip-path="url(#p2b754f2866)" style="fill: none; stroke: #6c6c6c"/>
   </g>
   <g id="patch_25">
    <path d="M 508.506813 548.42 
L 508.506813 43.704 
" style="fill: none; stroke: #000000; stroke-width: 2; stroke-linejoin: miter; stroke-linecap: square"/>
   </g>
   <g id="patch_26">
    <path d="M 703.928813 548.42 
L 703.928813 43.704 
" style="fill: none; stroke: #000000; stroke-width: 2; stroke-linejoin: miter; stroke-linecap: square"/>
   </g>
   <g id="patch_27">
    <path d="M 508.506813 548.42 
L 703.928813 548.42 
" style="fill: none; stroke: #000000; stroke-width: 2; stroke-linejoin: miter; stroke-linecap: square"/>
   </g>
   <g id="patch_28">
    <path d="M 508.506813 43.704 
L 703.928813 43.704 
" style="fill: none; stroke: #000000; stroke-width: 2; stroke-linejoin: miter; stroke-linecap: square"/>
   </g>
  </g>
  <g id="text_29">
   <!-- Halide -->
   <g transform="translate(344.804344 610.344) scale(0.324 -0.324)">
    <defs>
     <path id="ArialMT-48" d="M 513 0 
L 513 4581 
L 1119 4581 
L 1119 2700 
L 3500 2700 
L 3500 4581 
L 4106 4581 
L 4106 0 
L 3500 0 
L 3500 2159 
L 1119 2159 
L 1119 0 
L 513 0 
z
" transform="scale(0.015625)"/>
     <path id="ArialMT-61" d="M 2588 409 
Q 2275 144 1986 34 
Q 1697 -75 1366 -75 
Q 819 -75 525 192 
Q 231 459 231 875 
Q 231 1119 342 1320 
Q 453 1522 633 1644 
Q 813 1766 1038 1828 
Q 1203 1872 1538 1913 
Q 2219 1994 2541 2106 
Q 2544 2222 2544 2253 
Q 2544 2597 2384 2738 
Q 2169 2928 1744 2928 
Q 1347 2928 1158 2789 
Q 969 2650 878 2297 
L 328 2372 
Q 403 2725 575 2942 
Q 747 3159 1072 3276 
Q 1397 3394 1825 3394 
Q 2250 3394 2515 3294 
Q 2781 3194 2906 3042 
Q 3031 2891 3081 2659 
Q 3109 2516 3109 2141 
L 3109 1391 
Q 3109 606 3145 398 
Q 3181 191 3288 0 
L 2700 0 
Q 2613 175 2588 409 
z
M 2541 1666 
Q 2234 1541 1622 1453 
Q 1275 1403 1131 1340 
Q 988 1278 909 1158 
Q 831 1038 831 891 
Q 831 666 1001 516 
Q 1172 366 1500 366 
Q 1825 366 2078 508 
Q 2331 650 2450 897 
Q 2541 1088 2541 1459 
L 2541 1666 
z
" transform="scale(0.015625)"/>
     <path id="ArialMT-6c" d="M 409 0 
L 409 4581 
L 972 4581 
L 972 0 
L 409 0 
z
" transform="scale(0.015625)"/>
     <path id="ArialMT-69" d="M 425 3934 
L 425 4581 
L 988 4581 
L 988 3934 
L 425 3934 
z
M 425 0 
L 425 3319 
L 988 3319 
L 988 0 
L 425 0 
z
" transform="scale(0.015625)"/>
     <path id="ArialMT-64" d="M 2575 0 
L 2575 419 
Q 2259 -75 1647 -75 
Q 1250 -75 917 144 
Q 584 363 401 755 
Q 219 1147 219 1656 
Q 219 2153 384 2558 
Q 550 2963 881 3178 
Q 1213 3394 1622 3394 
Q 1922 3394 2156 3267 
Q 2391 3141 2538 2938 
L 2538 4581 
L 3097 4581 
L 3097 0 
L 2575 0 
z
M 797 1656 
Q 797 1019 1065 703 
Q 1334 388 1700 388 
Q 2069 388 2326 689 
Q 2584 991 2584 1609 
Q 2584 2291 2321 2609 
Q 2059 2928 1675 2928 
Q 1300 2928 1048 2622 
Q 797 2316 797 1656 
z
" transform="scale(0.015625)"/>
     <path id="ArialMT-65" d="M 2694 1069 
L 3275 997 
Q 3138 488 2766 206 
Q 2394 -75 1816 -75 
Q 1088 -75 661 373 
Q 234 822 234 1631 
Q 234 2469 665 2931 
Q 1097 3394 1784 3394 
Q 2450 3394 2872 2941 
Q 3294 2488 3294 1666 
Q 3294 1616 3291 1516 
L 816 1516 
Q 847 969 1125 678 
Q 1403 388 1819 388 
Q 2128 388 2347 550 
Q 2566 713 2694 1069 
z
M 847 1978 
L 2700 1978 
Q 2663 2397 2488 2606 
Q 2219 2931 1791 2931 
Q 1403 2931 1139 2672 
Q 875 2413 847 1978 
z
" transform="scale(0.015625)"/>
    </defs>
    <use xlink:href="#ArialMT-48"/>
    <use xlink:href="#ArialMT-61" x="72.216797"/>
    <use xlink:href="#ArialMT-6c" x="127.832031"/>
    <use xlink:href="#ArialMT-69" x="150.048828"/>
    <use xlink:href="#ArialMT-64" x="172.265625"/>
    <use xlink:href="#ArialMT-65" x="227.880859"/>
   </g>
  </g>
  <g id="legend_1">
   <g id="patch_29">
    <path d="M 83.38725 33.860813 
L 103.54725 33.860813 
L 103.54725 19.496813 
L 83.38725 19.496813 
z
" style="fill: #b4beaa; stroke: #6c6c6c; stroke-width: 2; stroke-linejoin: miter"/>
   </g>
   <g id="text_30">
    <!-- RP (Hybrid) -->
    <g transform="translate(108.58725 35.624813) scale(0.252 -0.252)">
     <defs>
      <path id="ArialMT-52" d="M 503 0 
L 503 4581 
L 2534 4581 
Q 3147 4581 3465 4457 
Q 3784 4334 3975 4021 
Q 4166 3709 4166 3331 
Q 4166 2844 3850 2509 
Q 3534 2175 2875 2084 
Q 3116 1969 3241 1856 
Q 3506 1613 3744 1247 
L 4541 0 
L 3778 0 
L 3172 953 
Q 2906 1366 2734 1584 
Q 2563 1803 2427 1890 
Q 2291 1978 2150 2013 
Q 2047 2034 1813 2034 
L 1109 2034 
L 1109 0 
L 503 0 
z
M 1109 2559 
L 2413 2559 
Q 2828 2559 3062 2645 
Q 3297 2731 3419 2920 
Q 3541 3109 3541 3331 
Q 3541 3656 3305 3865 
Q 3069 4075 2559 4075 
L 1109 4075 
L 1109 2559 
z
" transform="scale(0.015625)"/>
      <path id="ArialMT-50" d="M 494 0 
L 494 4581 
L 2222 4581 
Q 2678 4581 2919 4538 
Q 3256 4481 3484 4323 
Q 3713 4166 3852 3881 
Q 3991 3597 3991 3256 
Q 3991 2672 3619 2267 
Q 3247 1863 2275 1863 
L 1100 1863 
L 1100 0 
L 494 0 
z
M 1100 2403 
L 2284 2403 
Q 2872 2403 3119 2622 
Q 3366 2841 3366 3238 
Q 3366 3525 3220 3729 
Q 3075 3934 2838 4000 
Q 2684 4041 2272 4041 
L 1100 4041 
L 1100 2403 
z
" transform="scale(0.015625)"/>
      <path id="ArialMT-20" transform="scale(0.015625)"/>
      <path id="ArialMT-28" d="M 1497 -1347 
Q 1031 -759 709 28 
Q 388 816 388 1659 
Q 388 2403 628 3084 
Q 909 3875 1497 4659 
L 1900 4659 
Q 1522 4009 1400 3731 
Q 1209 3300 1100 2831 
Q 966 2247 966 1656 
Q 966 153 1900 -1347 
L 1497 -1347 
z
" transform="scale(0.015625)"/>
      <path id="ArialMT-79" d="M 397 -1278 
L 334 -750 
Q 519 -800 656 -800 
Q 844 -800 956 -737 
Q 1069 -675 1141 -563 
Q 1194 -478 1313 -144 
Q 1328 -97 1363 -6 
L 103 3319 
L 709 3319 
L 1400 1397 
Q 1534 1031 1641 628 
Q 1738 1016 1872 1384 
L 2581 3319 
L 3144 3319 
L 1881 -56 
Q 1678 -603 1566 -809 
Q 1416 -1088 1222 -1217 
Q 1028 -1347 759 -1347 
Q 597 -1347 397 -1278 
z
" transform="scale(0.015625)"/>
      <path id="ArialMT-62" d="M 941 0 
L 419 0 
L 419 4581 
L 981 4581 
L 981 2947 
Q 1338 3394 1891 3394 
Q 2197 3394 2470 3270 
Q 2744 3147 2920 2923 
Q 3097 2700 3197 2384 
Q 3297 2069 3297 1709 
Q 3297 856 2875 390 
Q 2453 -75 1863 -75 
Q 1275 -75 941 416 
L 941 0 
z
M 934 1684 
Q 934 1088 1097 822 
Q 1363 388 1816 388 
Q 2184 388 2453 708 
Q 2722 1028 2722 1663 
Q 2722 2313 2464 2622 
Q 2206 2931 1841 2931 
Q 1472 2931 1203 2611 
Q 934 2291 934 1684 
z
" transform="scale(0.015625)"/>
      <path id="ArialMT-72" d="M 416 0 
L 416 3319 
L 922 3319 
L 922 2816 
Q 1116 3169 1280 3281 
Q 1444 3394 1641 3394 
Q 1925 3394 2219 3213 
L 2025 2691 
Q 1819 2813 1613 2813 
Q 1428 2813 1281 2702 
Q 1134 2591 1072 2394 
Q 978 2094 978 1738 
L 978 0 
L 416 0 
z
" transform="scale(0.015625)"/>
      <path id="ArialMT-29" d="M 791 -1347 
L 388 -1347 
Q 1322 153 1322 1656 
Q 1322 2244 1188 2822 
Q 1081 3291 891 3722 
Q 769 4003 388 4659 
L 791 4659 
Q 1378 3875 1659 3084 
Q 1900 2403 1900 1659 
Q 1900 816 1576 28 
Q 1253 -759 791 -1347 
z
" transform="scale(0.015625)"/>
     </defs>
     <use xlink:href="#ArialMT-52"/>
     <use xlink:href="#ArialMT-50" x="72.216797"/>
     <use xlink:href="#ArialMT-20" x="137.166016"/>
     <use xlink:href="#ArialMT-28" x="164.949219"/>
     <use xlink:href="#ArialMT-48" x="198.25"/>
     <use xlink:href="#ArialMT-79" x="270.466797"/>
     <use xlink:href="#ArialMT-62" x="320.466797"/>
     <use xlink:href="#ArialMT-72" x="376.082031"/>
     <use xlink:href="#ArialMT-69" x="409.382812"/>
     <use xlink:href="#ArialMT-64" x="431.599609"/>
     <use xlink:href="#ArialMT-29" x="487.214844"/>
    </g>
   </g>
   <g id="patch_30">
    <path d="M 252.35325 33.860813 
L 272.51325 33.860813 
L 272.51325 19.496813 
L 252.35325 19.496813 
z
" style="fill: #edd3ab; stroke: #6c6c6c; stroke-width: 2; stroke-linejoin: miter"/>
   </g>
   <g id="text_31">
    <!-- RP (H) -->
    <g transform="translate(277.55325 35.624813) scale(0.252 -0.252)">
     <use xlink:href="#ArialMT-52"/>
     <use xlink:href="#ArialMT-50" x="72.216797"/>
     <use xlink:href="#ArialMT-20" x="137.166016"/>
     <use xlink:href="#ArialMT-28" x="164.949219"/>
     <use xlink:href="#ArialMT-48" x="198.25"/>
     <use xlink:href="#ArialMT-29" x="270.466797"/>
    </g>
   </g>
   <g id="patch_31">
    <path d="M 366.702188 33.860813 
L 386.862188 33.860813 
L 386.862188 19.496813 
L 366.702188 19.496813 
z
" style="fill: #c0bfbe; stroke: #6c6c6c; stroke-width: 2; stroke-linejoin: miter"/>
   </g>
   <g id="text_32">
    <!-- Non-RP (H) -->
    <g transform="translate(391.902188 35.624813) scale(0.252 -0.252)">
     <defs>
      <path id="ArialMT-4e" d="M 488 0 
L 488 4581 
L 1109 4581 
L 3516 984 
L 3516 4581 
L 4097 4581 
L 4097 0 
L 3475 0 
L 1069 3600 
L 1069 0 
L 488 0 
z
" transform="scale(0.015625)"/>
      <path id="ArialMT-6f" d="M 213 1659 
Q 213 2581 725 3025 
Q 1153 3394 1769 3394 
Q 2453 3394 2887 2945 
Q 3322 2497 3322 1706 
Q 3322 1066 3130 698 
Q 2938 331 2570 128 
Q 2203 -75 1769 -75 
Q 1072 -75 642 372 
Q 213 819 213 1659 
z
M 791 1659 
Q 791 1022 1069 705 
Q 1347 388 1769 388 
Q 2188 388 2466 706 
Q 2744 1025 2744 1678 
Q 2744 2294 2464 2611 
Q 2184 2928 1769 2928 
Q 1347 2928 1069 2612 
Q 791 2297 791 1659 
z
" transform="scale(0.015625)"/>
      <path id="ArialMT-6e" d="M 422 0 
L 422 3319 
L 928 3319 
L 928 2847 
Q 1294 3394 1984 3394 
Q 2284 3394 2536 3286 
Q 2788 3178 2913 3003 
Q 3038 2828 3088 2588 
Q 3119 2431 3119 2041 
L 3119 0 
L 2556 0 
L 2556 2019 
Q 2556 2363 2490 2533 
Q 2425 2703 2258 2804 
Q 2091 2906 1866 2906 
Q 1506 2906 1245 2678 
Q 984 2450 984 1813 
L 984 0 
L 422 0 
z
" transform="scale(0.015625)"/>
      <path id="ArialMT-2d" d="M 203 1375 
L 203 1941 
L 1931 1941 
L 1931 1375 
L 203 1375 
z
" transform="scale(0.015625)"/>
     </defs>
     <use xlink:href="#ArialMT-4e"/>
     <use xlink:href="#ArialMT-6f" x="72.216797"/>
     <use xlink:href="#ArialMT-6e" x="127.832031"/>
     <use xlink:href="#ArialMT-2d" x="183.447266"/>
     <use xlink:href="#ArialMT-52" x="216.748047"/>
     <use xlink:href="#ArialMT-50" x="288.964844"/>
     <use xlink:href="#ArialMT-20" x="353.914062"/>
     <use xlink:href="#ArialMT-28" x="381.697266"/>
     <use xlink:href="#ArialMT-48" x="414.998047"/>
     <use xlink:href="#ArialMT-29" x="487.214844"/>
    </g>
   </g>
   <g id="line2d_61">
    <path d="M 535.668188 27.560813 
L 555.828188 27.560813 
" style="fill: none; stroke-dasharray: 11.1,4.8; stroke-dashoffset: 0; stroke: #f8d5a0; stroke-width: 3"/>
   </g>
   <g id="text_33">
    <!-- Criterion (H) -->
    <g transform="translate(560.868188 35.624813) scale(0.252 -0.252)">
     <defs>
      <path id="ArialMT-43" d="M 3763 1606 
L 4369 1453 
Q 4178 706 3683 314 
Q 3188 -78 2472 -78 
Q 1731 -78 1267 223 
Q 803 525 561 1097 
Q 319 1669 319 2325 
Q 319 3041 592 3573 
Q 866 4106 1370 4382 
Q 1875 4659 2481 4659 
Q 3169 4659 3637 4309 
Q 4106 3959 4291 3325 
L 3694 3184 
Q 3534 3684 3231 3912 
Q 2928 4141 2469 4141 
Q 1941 4141 1586 3887 
Q 1231 3634 1087 3207 
Q 944 2781 944 2328 
Q 944 1744 1114 1308 
Q 1284 872 1643 656 
Q 2003 441 2422 441 
Q 2931 441 3284 734 
Q 3638 1028 3763 1606 
z
" transform="scale(0.015625)"/>
      <path id="ArialMT-74" d="M 1650 503 
L 1731 6 
Q 1494 -44 1306 -44 
Q 1000 -44 831 53 
Q 663 150 594 308 
Q 525 466 525 972 
L 525 2881 
L 113 2881 
L 113 3319 
L 525 3319 
L 525 4141 
L 1084 4478 
L 1084 3319 
L 1650 3319 
L 1650 2881 
L 1084 2881 
L 1084 941 
Q 1084 700 1114 631 
Q 1144 563 1211 522 
Q 1278 481 1403 481 
Q 1497 481 1650 503 
z
" transform="scale(0.015625)"/>
     </defs>
     <use xlink:href="#ArialMT-43"/>
     <use xlink:href="#ArialMT-72" x="72.216797"/>
     <use xlink:href="#ArialMT-69" x="105.517578"/>
     <use xlink:href="#ArialMT-74" x="127.734375"/>
     <use xlink:href="#ArialMT-65" x="155.517578"/>
     <use xlink:href="#ArialMT-72" x="211.132812"/>
     <use xlink:href="#ArialMT-69" x="244.433594"/>
     <use xlink:href="#ArialMT-6f" x="266.650391"/>
     <use xlink:href="#ArialMT-6e" x="322.265625"/>
     <use xlink:href="#ArialMT-20" x="377.880859"/>
     <use xlink:href="#ArialMT-28" x="405.664062"/>
     <use xlink:href="#ArialMT-48" x="438.964844"/>
     <use xlink:href="#ArialMT-29" x="511.181641"/>
    </g>
   </g>
  </g>
 </g>
 <defs>
  <clipPath id="p547b54f0b2">
   <rect x="86.362813" y="43.704" width="293.133" height="504.716"/>
  </clipPath>
  <clipPath id="p40be0b2fe7">
   <rect x="395.145813" y="43.704" width="97.711" height="504.716"/>
  </clipPath>
  <clipPath id="p2b754f2866">
   <rect x="508.506813" y="43.704" width="195.422" height="504.716"/>
  </clipPath>
 </defs>
</svg>
